<svg xmlns="http://www.w3.org/2000/svg" width="22" height="20" viewBox="0 0 22 20">
  <defs>
    <style>
      .cls-1 {
        fill: #fff;
        fill-rule: evenodd;
      }
    </style>
  </defs>
  <path id="previos" class="cls-1" d="M617.379,717.686l-0.7-.7-9.846,9.83,0.7,0.7Zm-10.2,9.206,0.716-.716,10.134,10.118-0.716.716Zm11.188-9.206-0.7-.7-9.846,9.83,0.7,0.7Zm-10.2,9.206,0.717-.716,10.134,10.118-0.717.716Zm-0.626-9.206-0.7-.7-9.847,9.83,0.7,0.7Zm-10.2,9.206,0.716-.716,10.134,10.118-0.716.716Zm11.188-9.206-0.7-.7-9.846,9.83,0.7,0.7Zm-10.2,9.206,0.717-.716,10.134,10.118-0.717.716Z" transform="translate(-597 -717)"/>
</svg>
