<svg xmlns="http://www.w3.org/2000/svg" width="22.344" height="20.344" viewBox="0 0 22.344 20.344">
  <defs>
    <style>
      .cls-1 {
        fill: #fff;
        fill-rule: evenodd;
      }
    </style>
  </defs>
  <path id="next" class="cls-1" d="M745.646,717.353l0.708-.706,10,10-0.708.707Zm10.364,9.365-0.728-.728L744.99,736.282l0.728,0.728Zm-11.364-9.365,0.708-.706,10,10-0.708.707Zm10.364,9.365-0.728-.728L743.99,736.282l0.728,0.728Zm0.636-9.365,0.708-.706,10,10-0.708.707Zm10.364,9.365-0.728-.728L754.99,736.282l0.728,0.728Zm-11.364-9.365,0.708-.706,10,10-0.708.707Zm10.364,9.365-0.728-.728L753.99,736.282l0.728,0.728Z" transform="translate(-744 -716.656)"/>
</svg>
